<svg width="107" height="26" viewBox="0 0 107 26" fill="none" xmlns="http://www.w3.org/2000/svg">
<path d="M32.4844 16.9688C32.8281 16.9688 33.1458 16.8984 33.4375 16.7578C33.7292 16.6172 33.9688 16.4245 34.1562 16.1797C34.3438 15.9297 34.4505 15.6458 34.4766 15.3281H35.8516C35.8255 15.8281 35.6562 16.2943 35.3438 16.7266C35.0365 17.1536 34.6328 17.5 34.1328 17.7656C33.6328 18.026 33.0833 18.1562 32.4844 18.1562C31.849 18.1562 31.2943 18.0443 30.8203 17.8203C30.3516 17.5964 29.9609 17.2891 29.6484 16.8984C29.3411 16.5078 29.1094 16.0599 28.9531 15.5547C28.8021 15.0443 28.7266 14.5052 28.7266 13.9375V13.6094C28.7266 13.0417 28.8021 12.5052 28.9531 12C29.1094 11.4896 29.3411 11.0391 29.6484 10.6484C29.9609 10.2578 30.3516 9.95052 30.8203 9.72656C31.2943 9.5026 31.849 9.39062 32.4844 9.39062C33.1458 9.39062 33.724 9.52604 34.2188 9.79688C34.7135 10.0625 35.1016 10.4271 35.3828 10.8906C35.6693 11.349 35.8255 11.8698 35.8516 12.4531H34.4766C34.4505 12.1042 34.3516 11.7891 34.1797 11.5078C34.013 11.2266 33.7839 11.0026 33.4922 10.8359C33.2057 10.6641 32.8698 10.5781 32.4844 10.5781C32.0417 10.5781 31.6693 10.6667 31.3672 10.8438C31.0703 11.0156 30.8333 11.25 30.6562 11.5469C30.4844 11.8385 30.3594 12.1641 30.2812 12.5234C30.2083 12.8776 30.1719 13.2396 30.1719 13.6094V13.9375C30.1719 14.3073 30.2083 14.6719 30.2812 15.0312C30.3542 15.3906 30.4766 15.7161 30.6484 16.0078C30.8255 16.2995 31.0625 16.5339 31.3594 16.7109C31.6615 16.8828 32.0365 16.9688 32.4844 16.9688ZM42.4609 16.5547V12.2031C42.4609 11.8698 42.3932 11.5807 42.2578 11.3359C42.1276 11.0859 41.9297 10.8932 41.6641 10.7578C41.3984 10.6224 41.0703 10.5547 40.6797 10.5547C40.3151 10.5547 39.9948 10.6172 39.7188 10.7422C39.4479 10.8672 39.2344 11.0312 39.0781 11.2344C38.9271 11.4375 38.8516 11.6562 38.8516 11.8906H37.4062C37.4062 11.5885 37.4844 11.2891 37.6406 10.9922C37.7969 10.6953 38.0208 10.4271 38.3125 10.1875C38.6094 9.94271 38.9635 9.75 39.375 9.60938C39.7917 9.46354 40.2552 9.39062 40.7656 9.39062C41.3802 9.39062 41.9219 9.49479 42.3906 9.70312C42.8646 9.91146 43.2344 10.2266 43.5 10.6484C43.7708 11.0651 43.9062 11.5885 43.9062 12.2188V16.1562C43.9062 16.4375 43.9297 16.737 43.9766 17.0547C44.0286 17.3724 44.1042 17.6458 44.2031 17.875V18H42.6953C42.6224 17.8333 42.5651 17.612 42.5234 17.3359C42.4818 17.0547 42.4609 16.7943 42.4609 16.5547ZM42.7109 12.875L42.7266 13.8906H41.2656C40.8542 13.8906 40.487 13.9245 40.1641 13.9922C39.8411 14.0547 39.5703 14.151 39.3516 14.2812C39.1328 14.4115 38.9661 14.5755 38.8516 14.7734C38.737 14.9661 38.6797 15.1927 38.6797 15.4531C38.6797 15.7188 38.7396 15.9609 38.8594 16.1797C38.9792 16.3984 39.1589 16.5729 39.3984 16.7031C39.6432 16.8281 39.9427 16.8906 40.2969 16.8906C40.7396 16.8906 41.1302 16.7969 41.4688 16.6094C41.8073 16.4219 42.0755 16.1927 42.2734 15.9219C42.4766 15.651 42.5859 15.388 42.6016 15.1328L43.2188 15.8281C43.1823 16.0469 43.0833 16.2891 42.9219 16.5547C42.7604 16.8203 42.5443 17.0755 42.2734 17.3203C42.0078 17.5599 41.6901 17.7604 41.3203 17.9219C40.9557 18.0781 40.5443 18.1562 40.0859 18.1562C39.513 18.1562 39.0104 18.0443 38.5781 17.8203C38.151 17.5964 37.8177 17.2969 37.5781 16.9219C37.3438 16.5417 37.2266 16.1172 37.2266 15.6484C37.2266 15.1953 37.3151 14.7969 37.4922 14.4531C37.6693 14.1042 37.9245 13.8151 38.2578 13.5859C38.5911 13.3516 38.9922 13.1745 39.4609 13.0547C39.9297 12.9349 40.4531 12.875 41.0312 12.875H42.7109ZM47.625 10.875V18H46.1797V9.54688H47.5859L47.625 10.875ZM50.2656 9.5L50.2578 10.8438C50.138 10.8177 50.0234 10.8021 49.9141 10.7969C49.8099 10.7865 49.6901 10.7812 49.5547 10.7812C49.2214 10.7812 48.9271 10.8333 48.6719 10.9375C48.4167 11.0417 48.2005 11.1875 48.0234 11.375C47.8464 11.5625 47.7057 11.7865 47.6016 12.0469C47.5026 12.3021 47.4375 12.5833 47.4062 12.8906L47 13.125C47 12.6146 47.0495 12.1354 47.1484 11.6875C47.2526 11.2396 47.4115 10.8438 47.625 10.5C47.8385 10.151 48.1094 9.88021 48.4375 9.6875C48.7708 9.48958 49.1667 9.39062 49.625 9.39062C49.7292 9.39062 49.849 9.40365 49.9844 9.42969C50.1198 9.45052 50.2135 9.47396 50.2656 9.5ZM53.1719 6V18H51.7188V6H53.1719ZM55.1094 13.8672V13.6875C55.1094 13.0781 55.1979 12.513 55.375 11.9922C55.5521 11.4661 55.8073 11.0104 56.1406 10.625C56.474 10.2344 56.8776 9.93229 57.3516 9.71875C57.8255 9.5 58.3568 9.39062 58.9453 9.39062C59.5391 9.39062 60.0729 9.5 60.5469 9.71875C61.026 9.93229 61.4323 10.2344 61.7656 10.625C62.1042 11.0104 62.362 11.4661 62.5391 11.9922C62.7161 12.513 62.8047 13.0781 62.8047 13.6875V13.8672C62.8047 14.4766 62.7161 15.0417 62.5391 15.5625C62.362 16.0833 62.1042 16.5391 61.7656 16.9297C61.4323 17.3151 61.0286 17.6172 60.5547 17.8359C60.0859 18.0495 59.5547 18.1562 58.9609 18.1562C58.3672 18.1562 57.8333 18.0495 57.3594 17.8359C56.8854 17.6172 56.4792 17.3151 56.1406 16.9297C55.8073 16.5391 55.5521 16.0833 55.375 15.5625C55.1979 15.0417 55.1094 14.4766 55.1094 13.8672ZM56.5547 13.6875V13.8672C56.5547 14.2891 56.6042 14.6875 56.7031 15.0625C56.8021 15.4323 56.9505 15.7604 57.1484 16.0469C57.3516 16.3333 57.6042 16.5599 57.9062 16.7266C58.2083 16.888 58.5599 16.9688 58.9609 16.9688C59.3568 16.9688 59.7031 16.888 60 16.7266C60.3021 16.5599 60.5521 16.3333 60.75 16.0469C60.9479 15.7604 61.0964 15.4323 61.1953 15.0625C61.2995 14.6875 61.3516 14.2891 61.3516 13.8672V13.6875C61.3516 13.2708 61.2995 12.8776 61.1953 12.5078C61.0964 12.1328 60.9453 11.8021 60.7422 11.5156C60.5443 11.224 60.2943 10.9948 59.9922 10.8281C59.6953 10.6615 59.3464 10.5781 58.9453 10.5781C58.5495 10.5781 58.2005 10.6615 57.8984 10.8281C57.6016 10.9948 57.3516 11.224 57.1484 11.5156C56.9505 11.8021 56.8021 12.1328 56.7031 12.5078C56.6042 12.8776 56.5547 13.2708 56.5547 13.6875ZM69.5391 15.7578C69.5391 15.5495 69.4922 15.3568 69.3984 15.1797C69.3099 14.9974 69.125 14.8333 68.8438 14.6875C68.5677 14.5365 68.151 14.4062 67.5938 14.2969C67.125 14.1979 66.7005 14.0807 66.3203 13.9453C65.9453 13.8099 65.625 13.6458 65.3594 13.4531C65.099 13.2604 64.8984 13.0339 64.7578 12.7734C64.6172 12.513 64.5469 12.2083 64.5469 11.8594C64.5469 11.526 64.6198 11.2109 64.7656 10.9141C64.9167 10.6172 65.1276 10.3542 65.3984 10.125C65.6745 9.89583 66.0052 9.71615 66.3906 9.58594C66.776 9.45573 67.2057 9.39062 67.6797 9.39062C68.3568 9.39062 68.9349 9.51042 69.4141 9.75C69.8932 9.98958 70.2604 10.3099 70.5156 10.7109C70.7708 11.1068 70.8984 11.5469 70.8984 12.0312H69.4531C69.4531 11.7969 69.3828 11.5703 69.2422 11.3516C69.1068 11.1276 68.9062 10.9427 68.6406 10.7969C68.3802 10.651 68.0599 10.5781 67.6797 10.5781C67.2786 10.5781 66.9531 10.6406 66.7031 10.7656C66.4583 10.8854 66.2786 11.0391 66.1641 11.2266C66.0547 11.4141 66 11.612 66 11.8203C66 11.9766 66.026 12.1172 66.0781 12.2422C66.1354 12.362 66.2344 12.474 66.375 12.5781C66.5156 12.6771 66.7135 12.7708 66.9688 12.8594C67.224 12.9479 67.5495 13.0365 67.9453 13.125C68.638 13.2812 69.2083 13.4688 69.6562 13.6875C70.1042 13.9062 70.4375 14.1745 70.6562 14.4922C70.875 14.8099 70.9844 15.1953 70.9844 15.6484C70.9844 16.0182 70.9062 16.3568 70.75 16.6641C70.599 16.9714 70.3776 17.237 70.0859 17.4609C69.7995 17.6797 69.4557 17.8516 69.0547 17.9766C68.6589 18.0964 68.2135 18.1562 67.7188 18.1562C66.974 18.1562 66.3438 18.0234 65.8281 17.7578C65.3125 17.4922 64.9219 17.1484 64.6562 16.7266C64.3906 16.3047 64.2578 15.8594 64.2578 15.3906H65.7109C65.7318 15.7865 65.8464 16.1016 66.0547 16.3359C66.263 16.5651 66.5182 16.7292 66.8203 16.8281C67.1224 16.9219 67.4219 16.9688 67.7188 16.9688C68.1146 16.9688 68.4453 16.9167 68.7109 16.8125C68.9818 16.7083 69.1875 16.5651 69.3281 16.3828C69.4688 16.2005 69.5391 15.9922 69.5391 15.7578ZM74.3281 6V18H72.8828V6H74.3281ZM73.9844 13.4531L73.3828 13.4297C73.388 12.8516 73.474 12.3177 73.6406 11.8281C73.8073 11.3333 74.0417 10.9036 74.3438 10.5391C74.6458 10.1745 75.0052 9.89323 75.4219 9.69531C75.8438 9.49219 76.3099 9.39062 76.8203 9.39062C77.237 9.39062 77.612 9.44792 77.9453 9.5625C78.2786 9.67188 78.5625 9.84896 78.7969 10.0938C79.0365 10.3385 79.2188 10.6562 79.3438 11.0469C79.4688 11.4323 79.5312 11.9036 79.5312 12.4609V18H78.0781V12.4453C78.0781 12.0026 78.013 11.6484 77.8828 11.3828C77.7526 11.112 77.5625 10.9167 77.3125 10.7969C77.0625 10.6719 76.7552 10.6094 76.3906 10.6094C76.0312 10.6094 75.7031 10.6849 75.4062 10.8359C75.1146 10.987 74.862 11.1953 74.6484 11.4609C74.4401 11.7266 74.276 12.0312 74.1562 12.375C74.0417 12.7135 73.9844 13.0729 73.9844 13.4531ZM85.2031 18.1562C84.6146 18.1562 84.0807 18.0573 83.6016 17.8594C83.1276 17.6562 82.7188 17.3724 82.375 17.0078C82.0365 16.6432 81.776 16.2109 81.5938 15.7109C81.4115 15.2109 81.3203 14.6641 81.3203 14.0703V13.7422C81.3203 13.0547 81.4219 12.4427 81.625 11.9062C81.8281 11.3646 82.1042 10.9062 82.4531 10.5312C82.8021 10.1562 83.1979 9.8724 83.6406 9.67969C84.0833 9.48698 84.5417 9.39062 85.0156 9.39062C85.6198 9.39062 86.1406 9.49479 86.5781 9.70312C87.0208 9.91146 87.3828 10.2031 87.6641 10.5781C87.9453 10.9479 88.1536 11.3854 88.2891 11.8906C88.4245 12.3906 88.4922 12.9375 88.4922 13.5312V14.1797H82.1797V13H87.0469V12.8906C87.026 12.5156 86.9479 12.151 86.8125 11.7969C86.6823 11.4427 86.474 11.151 86.1875 10.9219C85.901 10.6927 85.5104 10.5781 85.0156 10.5781C84.6875 10.5781 84.3854 10.6484 84.1094 10.7891C83.8333 10.9245 83.5964 11.1276 83.3984 11.3984C83.2005 11.6693 83.0469 12 82.9375 12.3906C82.8281 12.7812 82.7734 13.2318 82.7734 13.7422V14.0703C82.7734 14.4714 82.8281 14.849 82.9375 15.2031C83.0521 15.5521 83.2161 15.8594 83.4297 16.125C83.6484 16.3906 83.9115 16.599 84.2188 16.75C84.5312 16.901 84.8854 16.9766 85.2812 16.9766C85.7917 16.9766 86.224 16.8724 86.5781 16.6641C86.9323 16.4557 87.2422 16.1771 87.5078 15.8281L88.3828 16.5234C88.2005 16.7995 87.9688 17.0625 87.6875 17.3125C87.4062 17.5625 87.0599 17.7656 86.6484 17.9219C86.2422 18.0781 85.7604 18.1562 85.2031 18.1562ZM91.625 6V18H90.1797V6H91.625ZM91.2812 13.4531L90.6797 13.4297C90.6849 12.8516 90.7708 12.3177 90.9375 11.8281C91.1042 11.3333 91.3385 10.9036 91.6406 10.5391C91.9427 10.1745 92.3021 9.89323 92.7188 9.69531C93.1406 9.49219 93.6068 9.39062 94.1172 9.39062C94.5339 9.39062 94.9089 9.44792 95.2422 9.5625C95.5755 9.67188 95.8594 9.84896 96.0938 10.0938C96.3333 10.3385 96.5156 10.6562 96.6406 11.0469C96.7656 11.4323 96.8281 11.9036 96.8281 12.4609V18H95.375V12.4453C95.375 12.0026 95.3099 11.6484 95.1797 11.3828C95.0495 11.112 94.8594 10.9167 94.6094 10.7969C94.3594 10.6719 94.0521 10.6094 93.6875 10.6094C93.3281 10.6094 93 10.6849 92.7031 10.8359C92.4115 10.987 92.1589 11.1953 91.9453 11.4609C91.737 11.7266 91.5729 12.0312 91.4531 12.375C91.3385 12.7135 91.2812 13.0729 91.2812 13.4531ZM102.5 18.1562C101.911 18.1562 101.378 18.0573 100.898 17.8594C100.424 17.6562 100.016 17.3724 99.6719 17.0078C99.3333 16.6432 99.0729 16.2109 98.8906 15.7109C98.7083 15.2109 98.6172 14.6641 98.6172 14.0703V13.7422C98.6172 13.0547 98.7188 12.4427 98.9219 11.9062C99.125 11.3646 99.401 10.9062 99.75 10.5312C100.099 10.1562 100.495 9.8724 100.938 9.67969C101.38 9.48698 101.839 9.39062 102.312 9.39062C102.917 9.39062 103.438 9.49479 103.875 9.70312C104.318 9.91146 104.68 10.2031 104.961 10.5781C105.242 10.9479 105.451 11.3854 105.586 11.8906C105.721 12.3906 105.789 12.9375 105.789 13.5312V14.1797H99.4766V13H104.344V12.8906C104.323 12.5156 104.245 12.151 104.109 11.7969C103.979 11.4427 103.771 11.151 103.484 10.9219C103.198 10.6927 102.807 10.5781 102.312 10.5781C101.984 10.5781 101.682 10.6484 101.406 10.7891C101.13 10.9245 100.893 11.1276 100.695 11.3984C100.497 11.6693 100.344 12 100.234 12.3906C100.125 12.7812 100.07 13.2318 100.07 13.7422V14.0703C100.07 14.4714 100.125 14.849 100.234 15.2031C100.349 15.5521 100.513 15.8594 100.727 16.125C100.945 16.3906 101.208 16.599 101.516 16.75C101.828 16.901 102.182 16.9766 102.578 16.9766C103.089 16.9766 103.521 16.8724 103.875 16.6641C104.229 16.4557 104.539 16.1771 104.805 15.8281L105.68 16.5234C105.497 16.7995 105.266 17.0625 104.984 17.3125C104.703 17.5625 104.357 17.7656 103.945 17.9219C103.539 18.0781 103.057 18.1562 102.5 18.1562Z" fill="#C4C4CC"/>
<g clip-path="url(#clip0_61385_196)">
<path d="M7.999 5.16653C3.582 5.16653 0 8.76253 0 13.1985C0 16.7465 2.292 19.7565 5.472 20.8195C5.872 20.8935 6.018 20.6455 6.018 20.4325C6.018 20.2415 6.011 19.7365 6.007 19.0665C3.782 19.5515 3.312 17.9895 3.312 17.9895C2.949 17.0615 2.424 16.8145 2.424 16.8145C1.697 16.3165 2.478 16.3265 2.478 16.3265C3.281 16.3835 3.703 17.1545 3.703 17.1545C4.417 18.3815 5.576 18.0275 6.032 17.8215C6.104 17.3025 6.311 16.9485 6.54 16.7475C4.764 16.5445 2.896 15.8555 2.896 12.7785C2.896 11.9015 3.208 11.1845 3.72 10.6225C3.637 10.4195 3.363 9.60253 3.798 8.49753C3.798 8.49753 4.47 8.28153 5.998 9.32053C6.636 9.14253 7.32 9.05353 8.001 9.05053C8.68 9.05453 9.365 9.14253 10.004 9.32153C11.531 8.28253 12.202 8.49853 12.202 8.49853C12.638 9.60453 12.364 10.4205 12.282 10.6235C12.795 11.1855 13.104 11.9025 13.104 12.7795C13.104 15.8645 11.234 16.5435 9.452 16.7425C9.739 16.9905 9.995 17.4805 9.995 18.2295C9.995 19.3035 9.985 20.1695 9.985 20.4325C9.985 20.6475 10.129 20.8975 10.535 20.8185C13.71 19.7545 16 16.7455 16 13.1985C16 8.76253 12.418 5.16653 7.999 5.16653Z" fill="#C4C4CC"/>
</g>
<defs>
<clipPath id="clip0_61385_196">
<rect width="16" height="16" fill="white" transform="translate(0 5)"/>
</clipPath>
</defs>
</svg>
